<?xml version="1.0" encoding="UTF-8"?>
<svg version="1.1" xmlns="http://www.w3.org/2000/svg" width="723" height="463">
<path d="M0 0 C1.70964432 -0.00503792 1.70964432 -0.00503792 3.4538269 -0.01017761 C7.1992097 -0.0196277 10.94454745 -0.02162812 14.68994141 -0.02270508 C17.31816628 -0.02592313 19.94639097 -0.02928761 22.57461548 -0.03279114 C28.08034555 -0.03916832 33.58606361 -0.0406757 39.09179688 -0.04003906 C45.40253721 -0.03944096 51.71319134 -0.04994596 58.02390993 -0.06578273 C64.14811558 -0.08058902 70.27228087 -0.08402286 76.39650345 -0.08342934 C78.97568741 -0.08459816 81.55487223 -0.08895711 84.13404465 -0.0967617 C122.26609074 -0.20129802 122.26609074 -0.20129802 138.16650391 4.45776367 C138.95009277 4.67795166 139.73368164 4.89813965 140.54101562 5.125 C150.5509135 8.01814743 159.41153685 12.13016206 168.41650391 17.33276367 C169.5633667 17.99344849 169.5633667 17.99344849 170.73339844 18.66748047 C172.58143418 19.76679773 174.37964016 20.94908119 176.16650391 22.14526367 C176.16650391 22.80526367 176.16650391 23.46526367 176.16650391 24.14526367 C177.28025391 24.54745117 177.28025391 24.54745117 178.41650391 24.95776367 C181.05712339 26.09803118 183.02203235 27.23906673 185.16650391 29.14526367 C185.16650391 29.80526367 185.16650391 30.46526367 185.16650391 31.14526367 C185.80587891 31.41338867 186.44525391 31.68151367 187.10400391 31.95776367 C189.16650391 33.14526367 189.16650391 33.14526367 190.16650391 36.14526367 C190.82650391 36.14526367 191.48650391 36.14526367 192.16650391 36.14526367 C192.16650391 36.80526367 192.16650391 37.46526367 192.16650391 38.14526367 C192.74916016 38.38245117 193.33181641 38.61963867 193.93212891 38.86401367 C196.64203228 40.41794428 198.03181192 42.16455799 199.91650391 44.64526367 C200.83689453 45.83635742 200.83689453 45.83635742 201.77587891 47.05151367 C203.16650391 49.14526367 203.16650391 49.14526367 203.16650391 51.14526367 C203.82650391 51.14526367 204.48650391 51.14526367 205.16650391 51.14526367 C206.3023706 53.16033488 207.42673426 55.18090977 208.54150391 57.20776367 C209.71105808 59.32195776 210.90109235 61.42486934 212.10400391 63.52026367 C220.49908384 78.38696847 225.16947465 94.23075417 225.85400391 111.33276367 C225.89162842 112.24767578 225.92925293 113.16258789 225.96801758 114.10522461 C226.76656103 137.05982897 222.10957875 159.29783495 210.16650391 179.14526367 C209.55033203 180.17651367 208.93416016 181.20776367 208.29931641 182.27026367 C204.77764431 187.99846061 204.77764431 187.99846061 203.16650391 190.14526367 C202.50650391 190.14526367 201.84650391 190.14526367 201.16650391 190.14526367 C200.90224609 190.72663086 200.63798828 191.30799805 200.36572266 191.90698242 C196.38151077 199.34331275 188.32246308 207.63965974 181.16650391 212.14526367 C180.50650391 212.14526367 179.84650391 212.14526367 179.16650391 212.14526367 C179.16650391 212.80526367 179.16650391 213.46526367 179.16650391 214.14526367 C174.78188852 217.14526367 174.78188852 217.14526367 172.16650391 217.14526367 C172.16650391 217.80526367 172.16650391 218.46526367 172.16650391 219.14526367 C161.82550636 225.07590855 151.52027283 229.53216015 140.16650391 233.14526367 C139.22548828 233.46366211 138.28447266 233.78206055 137.31494141 234.11010742 C123.94493741 238.27012414 95.73136897 243.42769621 83.16650391 237.14526367 C83.16650391 220.97526367 83.16650391 204.80526367 83.16650391 188.14526367 C98.10400391 187.70776367 98.10400391 187.70776367 102.76000977 187.57714844 C118.4711701 187.09286177 131.81183019 185.13169656 145.27587891 176.28198242 C147.16650391 175.14526367 147.16650391 175.14526367 149.16650391 175.14526367 C149.16650391 174.48526367 149.16650391 173.82526367 149.16650391 173.14526367 C150.81103516 171.45385742 150.81103516 171.45385742 152.97900391 169.58276367 C153.68669922 168.96272461 154.39439453 168.34268555 155.12353516 167.70385742 C157.16650391 166.14526367 157.16650391 166.14526367 160.16650391 165.14526367 C160.88701715 163.50115817 161.54775751 161.83030822 162.16650391 160.14526367 C163.06847564 158.76717783 164.00768486 157.41288131 164.97900391 156.08276367 C168.5908266 150.79307714 171.00054185 145.15659316 173.16650391 139.14526367 C173.53517578 138.12948242 173.90384766 137.11370117 174.28369141 136.06713867 C179.28287556 117.87787602 174.72069357 98.97106306 165.94775391 83.02026367 C164.21029006 80.08334727 164.21029006 80.08334727 161.94775391 77.39526367 C160.16650391 75.14526367 160.16650391 75.14526367 160.16650391 73.14526367 C159.50650391 73.14526367 158.84650391 73.14526367 158.16650391 73.14526367 C157.59416016 72.41436523 157.02181641 71.6834668 156.43212891 70.93041992 C145.6314419 57.65302366 127.44310111 52.21291778 111.16650391 50.14526367 C106.9427741 49.88553055 102.73499933 49.86114912 98.50415039 49.87060547 C97.30087097 49.86549454 96.09759155 49.86038361 94.85784912 49.8551178 C91.59548012 49.84369713 88.3332708 49.84113202 85.07088733 49.8436811 C82.33248108 49.84476031 79.59409757 49.83984376 76.85569626 49.83507568 C70.39035201 49.82403314 63.92506589 49.82351422 57.4597168 49.82958984 C50.81924747 49.8356345 44.17898977 49.82329414 37.53855652 49.80201977 C31.80654166 49.78434008 26.0745938 49.77841214 20.34255272 49.78165752 C16.9323903 49.78345935 13.52237912 49.78094481 10.11224174 49.76694298 C6.30781798 49.75454539 2.50387944 49.76139005 -1.30053711 49.77294922 C-2.41097885 49.76530548 -3.52142059 49.75766174 -4.66551208 49.74978638 C-14.25547208 49.81387772 -22.75846284 51.69161645 -31.27099609 56.20776367 C-32.723125 56.96766602 -32.723125 56.96766602 -34.20458984 57.74291992 C-35.07212891 58.20569336 -35.93966797 58.6684668 -36.83349609 59.14526367 C-38.16460724 59.81635631 -39.49701821 60.48492354 -40.83349609 61.14526367 C-40.83349609 61.80526367 -40.83349609 62.46526367 -40.83349609 63.14526367 C-41.49349609 63.14526367 -42.15349609 63.14526367 -42.83349609 63.14526367 C-43.10162109 63.71374023 -43.36974609 64.2822168 -43.64599609 64.86791992 C-45.30088327 68.04160157 -47.35442776 70.89410294 -49.39599609 73.82885742 C-53.20044177 79.9593908 -53.95412483 86.17048911 -53.97216129 93.28716087 C-53.97763574 94.50436203 -53.98311018 95.72156319 -53.98875052 96.97564924 C-53.98982657 98.31786236 -53.99081129 99.66007557 -53.99171448 101.00228882 C-53.99628291 102.43464948 -54.00128335 103.86700881 -54.00667804 105.29936659 C-54.0202365 109.23075214 -54.02767086 113.16212906 -54.0341047 117.09353185 C-54.04211873 121.33478508 -54.05581306 125.57602041 -54.06881714 129.81726074 C-54.09056566 137.16397922 -54.10871609 144.51069953 -54.12442207 151.85743332 C-54.14713548 162.47957465 -54.17527628 173.10169615 -54.20474135 183.72382064 C-54.25239921 200.95755461 -54.2956683 218.19129669 -54.33618164 235.42504883 C-54.37554575 252.16594067 -54.41697418 268.9068253 -54.46118164 285.64770508 C-54.46390591 286.67962921 -54.46663018 287.71155334 -54.46943701 288.77474789 C-54.48311664 293.95161283 -54.49683688 299.12847766 -54.51057732 304.30534244 C-54.62451373 347.25196781 -54.73132936 390.19860879 -54.83349609 433.14526367 C-59.64677974 434.82763026 -64.20974814 435.71564612 -69.27099609 436.20776367 C-70.07851318 436.28865234 -70.88603027 436.36954102 -71.71801758 436.45288086 C-78.60064733 437.10246858 -85.49220799 437.54365428 -92.39599609 437.89526367 C-93.40138428 437.95206299 -94.40677246 438.0088623 -95.44262695 438.06738281 C-96.37727783 438.10855225 -97.31192871 438.14972168 -98.27490234 438.19213867 C-99.10707275 438.23177734 -99.93924316 438.27141602 -100.79663086 438.31225586 C-102.83349609 438.14526367 -102.83349609 438.14526367 -104.83349609 436.14526367 C-105.08419442 433.69556457 -105.08419442 433.69556457 -105.08517838 430.53745747 C-105.09039387 429.33747098 -105.09560936 428.1374845 -105.1009829 426.90113479 C-105.09665805 425.55748709 -105.09214471 424.21383999 -105.08746338 422.87019348 C-105.08976584 421.4519752 -105.09294091 420.03375812 -105.09691787 418.61554354 C-105.1053054 414.70404476 -105.10112261 410.79264293 -105.09494543 406.88114369 C-105.0904375 402.66748514 -105.09739679 398.45384378 -105.10290527 394.2401886 C-105.11182173 385.97630062 -105.1098664 377.71244887 -105.10407999 369.44855944 C-105.09956837 362.72724081 -105.09894845 356.00593236 -105.10112762 349.28461266 C-105.10143409 348.32893949 -105.10174056 347.37326632 -105.10205631 346.38863337 C-105.10269576 344.4472004 -105.10334419 342.50576744 -105.10400149 340.56433447 C-105.1097124 322.33319758 -105.10313706 304.10208075 -105.09240076 285.87094714 C-105.08348315 270.24533487 -105.08500101 254.61975235 -105.09423828 238.99414062 C-105.10495962 220.84963974 -105.1091434 202.70515653 -105.10301375 184.56065291 C-105.10237667 182.62227516 -105.10174793 180.6838974 -105.10112762 178.74551964 C-105.10081907 177.79183814 -105.10051052 176.83815665 -105.10019262 175.85557571 C-105.09846987 169.15300392 -105.1013721 162.45044336 -105.10608673 155.74787331 C-105.11171709 147.56323804 -105.1101348 139.3786411 -105.09952524 131.19401018 C-105.09429454 127.02209263 -105.09216677 122.85023881 -105.09882355 118.67832184 C-105.10484066 114.8490474 -105.10141424 111.01989493 -105.09086844 107.19063135 C-105.08762187 105.16977297 -105.09405405 103.14890593 -105.1009829 101.12805682 C-105.00397158 78.17701621 -99.19874883 57.01385576 -85.83349609 38.14526367 C-85.17349609 38.14526367 -84.51349609 38.14526367 -83.83349609 38.14526367 C-83.57181641 37.56776367 -83.31013672 36.99026367 -83.04052734 36.39526367 C-80.03386023 30.79060264 -75.05050884 25.72264384 -69.83349609 22.14526367 C-69.17349609 22.14526367 -68.51349609 22.14526367 -67.83349609 22.14526367 C-67.83349609 21.48526367 -67.83349609 20.82526367 -67.83349609 20.14526367 C-49.04161909 4.16654191 -23.84375085 -0.01024509 0 0 Z " fill="#3C60D6" transform="translate(486.83349609375,9.854736328125)"/>
<path d="M0 0 C2.59533728 -0.00135132 5.19067432 -0.00329571 7.78601074 -0.00579834 C13.19509561 -0.00872767 18.60410818 -0.00472033 24.01318359 0.00488281 C30.2111012 0.0157614 36.40888708 0.01223363 42.60680151 0.00123 C48.64080416 -0.00904192 54.67474392 -0.00782501 60.70875549 -0.00200653 C63.24410522 -0.00068645 65.77945838 -0.00225912 68.31480408 -0.00696564 C104.03716364 -0.05875056 132.56098647 4.01924178 159.46875 29.453125 C168.45806981 38.70529042 176.92699743 50.77347264 180.40625 63.328125 C180.6434375 64.16601562 180.880625 65.00390625 181.125 65.8671875 C181.3415625 66.65867187 181.558125 67.45015625 181.78125 68.265625 C182.15495096 69.57849546 182.52978784 70.89104364 182.90625 72.203125 C183.195 73.21375 183.48375 74.224375 183.78125 75.265625 C184.11125 76.255625 184.44125 77.245625 184.78125 78.265625 C185.98403272 86.71643612 185.92497885 95.23190347 185.91496277 103.74842834 C185.91683446 105.1878029 185.91913658 106.62717694 185.92182809 108.0665502 C185.92790727 111.99418812 185.92781714 115.92180463 185.92663372 119.84944618 C185.92642875 124.09541451 185.93195727 128.34137614 185.93669128 132.58734131 C185.94497464 140.89174437 185.94774498 149.19614033 185.94830366 157.50054718 C185.94877947 164.24655048 185.95083741 170.99255144 185.95400429 177.738554 C185.9628008 196.86555658 185.96742467 215.99255355 185.96667381 235.11955816 C185.96661388 236.66417204 185.96661388 236.66417204 185.96655273 238.23999023 C185.96651185 239.27098842 185.96647097 240.30198661 185.96642885 241.36422717 C185.96602159 258.1072566 185.97561381 274.85026363 185.9896911 291.59328658 C186.00403237 308.78565474 186.01096268 325.97801195 186.01009732 343.17038625 C186.00976481 352.82273299 186.01253638 362.47505618 186.02327538 372.12739754 C186.03235031 380.33633716 186.03458016 388.54524252 186.02776595 396.75418497 C186.02448682 400.9448096 186.02449412 405.13536838 186.0331192 409.32598686 C186.04092294 413.15668542 186.03961636 416.98726523 186.03083507 420.81796067 C186.02928657 422.20864128 186.03116636 423.59933049 186.03669515 424.99000097 C186.0436797 426.87033167 186.03730954 428.75069818 186.03013897 430.63102818 C186.03046502 432.20210027 186.03046502 432.20210027 186.03079766 433.8049112 C185.78125 436.265625 185.78125 436.265625 183.78125 438.265625 C181.17346209 438.3240352 178.69320356 438.26080159 176.09765625 438.09375 C175.32751694 438.05127136 174.55737762 438.00879272 173.76390076 437.96502686 C172.12689391 437.87235069 170.49017419 437.77448157 168.85375977 437.671875 C166.38548644 437.51822312 163.91674249 437.38272231 161.44726562 437.25 C153.10258238 436.77455559 144.96058684 436.10122169 136.78125 434.265625 C136.02247803 430.2201517 135.65786187 426.40592673 135.6637888 422.29221725 C135.66303114 421.11253364 135.66227349 419.93285003 135.66149288 418.71741843 C135.66790851 416.78699144 135.66790851 416.78699144 135.67445374 414.81756592 C135.67545027 413.42945703 135.67599951 412.04134777 135.67614073 410.65323853 C135.67778463 406.84375536 135.68564994 403.03430651 135.69450247 399.2248342 C135.70293781 395.11428414 135.70553241 391.00373009 135.70875549 386.89317322 C135.71505267 379.77073301 135.72479254 372.64830428 135.73665047 365.52587128 C135.75363229 355.21715124 135.76318175 344.90843404 135.7705292 334.5997031 C135.78247567 317.85992238 135.79742415 301.12014613 135.81567383 284.38037109 C135.81676395 283.37855003 135.81785407 282.37672896 135.81897723 281.34454969 C135.83458358 267.13119942 135.85317709 252.91785461 135.8729751 238.70450965 C135.87436842 237.70390135 135.87576173 236.70329305 135.87719727 235.67236328 C135.8785908 234.67297614 135.87998433 233.67358901 135.88142008 232.64391741 C135.9044668 215.97147953 135.91977499 199.29904518 135.92875665 182.62659383 C135.93460538 172.3462084 135.94696615 162.06587146 135.96772944 151.78550515 C135.98145384 144.73844885 135.98793132 137.69140947 135.98873956 130.64433995 C135.98944247 126.58034437 135.99341252 122.5164211 136.0062027 118.45244408 C136.01786292 114.72784293 136.02018257 111.00335396 136.01526051 107.27873889 C136.01503893 105.30208366 136.0246854 103.32543481 136.03475052 101.34880519 C136.0077748 91.8093087 135.31704187 83.33552987 130.71875 74.828125 C129.18525713 71.9523572 127.81246414 69.35926743 126.78125 66.265625 C126.12125 66.265625 125.46125 66.265625 124.78125 66.265625 C124.0078125 65.21375 124.0078125 65.21375 123.21875 64.140625 C115.71359769 55.28839407 104.90675032 51.90056258 93.78125 50.265625 C89.63898743 49.99809944 85.51167083 49.99175518 81.36181641 50.00683594 C80.16043533 50.0033313 78.95905426 49.99982666 77.7212677 49.99621582 C74.45457367 49.98896725 71.18804414 49.99060258 67.92135286 49.99697399 C64.48234524 50.00207885 61.04334771 49.99732997 57.6043396 49.99420166 C51.82963116 49.990574 46.05497406 49.99532844 40.28027344 50.00488281 C33.63308992 50.01575473 26.98602924 50.01224614 20.33884871 50.00123 C14.60346455 49.99211039 8.86811706 49.99089486 3.13272798 49.99610734 C-0.2802523 49.99920282 -3.69317514 49.9997041 -7.10615158 49.99303436 C-10.91769292 49.9879195 -14.72900308 49.9957494 -18.54052734 50.00683594 C-20.20551018 50.00076324 -20.20551018 50.00076324 -21.90412903 49.99456787 C-38.24840455 50.08203682 -51.72290097 54.18607559 -65.66015625 62.71484375 C-67.80984842 64.01778694 -69.95252323 65.18316845 -72.21875 66.265625 C-72.21875 66.925625 -72.21875 67.585625 -72.21875 68.265625 C-72.87875 68.265625 -73.53875 68.265625 -74.21875 68.265625 C-74.21875 68.925625 -74.21875 69.585625 -74.21875 70.265625 C-75.36568824 71.37780754 -76.51272585 72.48988772 -77.66015625 73.6015625 C-89.2172424 85.94070711 -95.18780969 102.88394115 -95.2265625 119.64453125 C-94.04832315 139.2268693 -86.25454373 157.20317695 -71.70703125 170.57421875 C-66.84538078 174.63179839 -61.99953226 177.69638844 -56.21875 180.265625 C-56.21875 180.925625 -56.21875 181.585625 -56.21875 182.265625 C-54.7646875 182.4203125 -54.7646875 182.4203125 -53.28125 182.578125 C-49.56035669 183.09574927 -46.22670858 184.21706387 -42.72265625 185.546875 C-33.71632678 188.13215522 -23.97157932 187.58751058 -14.67211914 187.81787109 C-12.64719284 187.86938632 -10.62241874 187.92677999 -8.59765625 187.984375 C-7.3969751 188.01466797 -6.19629395 188.04496094 -4.95922852 188.07617188 C-2.21875 188.265625 -2.21875 188.265625 -1.21875 189.265625 C-1.12043854 190.76432548 -1.09076544 192.26761039 -1.08935547 193.76953125 C-1.08620331 194.72722412 -1.08305115 195.68491699 -1.07980347 196.67163086 C-1.08283981 198.23409546 -1.08283981 198.23409546 -1.0859375 199.828125 C-1.08498077 200.88974854 -1.08402405 201.95137207 -1.08303833 203.04516602 C-1.08235636 205.29475972 -1.08421181 207.54435537 -1.08837891 209.79394531 C-1.0937269 213.25069571 -1.08843446 216.70731617 -1.08203125 220.1640625 C-1.08269203 222.34375029 -1.08397318 224.523438 -1.0859375 226.703125 C-1.08391327 227.74476807 -1.08188904 228.78641113 -1.07980347 229.85961914 C-1.08453171 231.29615845 -1.08453171 231.29615845 -1.08935547 232.76171875 C-1.09015106 233.60919678 -1.09094666 234.4566748 -1.09176636 235.32983398 C-1.21875 237.265625 -1.21875 237.265625 -2.21875 238.265625 C-25.55290405 239.61829664 -50.4611763 238.66489684 -72.21875 229.265625 C-72.21875 228.605625 -72.21875 227.945625 -72.21875 227.265625 C-73.06308594 227.18183594 -73.90742187 227.09804687 -74.77734375 227.01171875 C-78.78447704 226.14297589 -81.84421695 224.4656103 -85.28125 222.328125 C-85.92521729 221.93423584 -86.56918457 221.54034668 -87.23266602 221.13452148 C-91.86723904 218.24323343 -96.30872917 215.13389402 -100.65625 211.828125 C-101.21771729 211.40345947 -101.77918457 210.97879395 -102.35766602 210.54125977 C-103.68666375 209.5008732 -104.95927319 208.38917177 -106.21875 207.265625 C-106.21875 206.605625 -106.21875 205.945625 -106.21875 205.265625 C-107.09273437 204.894375 -107.09273437 204.894375 -107.984375 204.515625 C-110.54989236 203.08037054 -112.05599798 201.48899487 -113.96875 199.265625 C-114.58234375 198.564375 -115.1959375 197.863125 -115.828125 197.140625 C-117.21875 195.265625 -117.21875 195.265625 -117.21875 193.265625 C-118.20875 192.935625 -119.19875 192.605625 -120.21875 192.265625 C-121.75732072 190.22910601 -123.12469226 188.23764293 -124.46875 186.078125 C-124.86352539 185.450271 -125.25830078 184.82241699 -125.66503906 184.17553711 C-138.1869392 163.92472403 -144.39243707 143.25280365 -144.40625 119.453125 C-144.41849609 118.35419922 -144.43074219 117.25527344 -144.44335938 116.12304688 C-144.48012506 95.32592164 -137.71553354 76.53177888 -128.21875 58.265625 C-127.55875 58.265625 -126.89875 58.265625 -126.21875 58.265625 C-126.14269531 57.729375 -126.06664063 57.193125 -125.98828125 56.640625 C-124.92942883 53.3726947 -122.99569158 50.93790661 -120.90625 48.265625 C-120.25052002 47.41991943 -120.25052002 47.41991943 -119.58154297 46.55712891 C-113.80527832 39.27542401 -107.03030585 31.39303391 -99.21875 26.265625 C-98.55875 26.265625 -97.89875 26.265625 -97.21875 26.265625 C-97.21875 25.605625 -97.21875 24.945625 -97.21875 24.265625 C-92.83413462 21.265625 -92.83413462 21.265625 -90.21875 21.265625 C-90.21875 20.605625 -90.21875 19.945625 -90.21875 19.265625 C-79.28082139 12.97073548 -68.19705839 7.87053801 -56.03125 4.515625 C-55.33902344 4.31702881 -54.64679688 4.11843262 -53.93359375 3.91381836 C-36.43377426 -0.63045194 -17.91915044 -0.03326444 0 0 Z " fill="#3353C1" transform="translate(152.21875,9.734375)"/>
<path d="M0 0 C1.49493233 -0.00856522 1.49493233 -0.00856522 3.02006531 -0.01730347 C4.12284821 -0.01842133 5.2256311 -0.01953918 6.36183167 -0.02069092 C7.51634323 -0.02565582 8.6708548 -0.03062073 9.86035156 -0.03573608 C13.70272914 -0.05041064 17.54506536 -0.0571706 21.38746643 -0.06268311 C23.37921516 -0.06698023 25.37096389 -0.07127787 27.36271244 -0.07565761 C32.9204204 -0.08748477 38.47811832 -0.0950107 44.03583759 -0.09845281 C51.20968518 -0.10292039 58.38334097 -0.12040106 65.55713028 -0.1494534 C71.10715857 -0.17114396 76.65713326 -0.1811612 82.20720345 -0.18249393 C85.51859632 -0.18353783 88.82976932 -0.19082008 92.14112663 -0.20731354 C95.84635095 -0.2244421 99.55111464 -0.22247614 103.25636292 -0.21600342 C104.34092773 -0.2252182 105.42549255 -0.23443298 106.54292297 -0.243927 C115.44302208 -0.19542797 124.18687977 0.87616673 130.85231018 7.28887939 C135.90747549 13.37047421 138.21625673 19.55001078 137.81324768 27.46466064 C136.72512067 34.36620694 133.81939743 39.69933073 128.39137268 44.14044189 C104.69658804 61.09280814 68.94980343 50.14044189 43.39137268 50.14044189 C43.39137268 138.58044189 43.39137268 227.02044189 43.39137268 318.14044189 C36.2424532 320.74004898 29.25289882 323.16595676 21.95387268 325.20294189 C21.04443909 325.45825684 20.13500549 325.71357178 19.19801331 325.97662354 C17.40661565 326.47698274 15.61448687 326.97473363 13.82154846 327.46954346 C11.72689709 328.0478137 9.63502703 328.63614148 7.54371643 329.22637939 C6.50344299 329.50739502 5.46316956 329.78841064 4.39137268 330.07794189 C3.09199768 330.43178955 3.09199768 330.43178955 1.76637268 330.79278564 C-0.94457086 331.18961784 -2.95215976 330.72981805 -5.60862732 330.14044189 C-5.63149195 288.24480946 -5.64912466 246.34917774 -5.65969265 204.4535403 C-5.66094343 199.51282975 -5.66223774 194.57211922 -5.66355896 189.63140869 C-5.66382127 188.64775874 -5.66408358 187.66410879 -5.66435384 186.65065127 C-5.66871091 170.70163743 -5.67659866 154.75262717 -5.68578012 138.80361546 C-5.69511563 122.45120141 -5.70068271 106.09878924 -5.70271581 89.74637264 C-5.70409126 79.64756345 -5.70844298 69.54876439 -5.71654379 59.44995832 C-5.72180998 52.53466506 -5.72343191 45.61937708 -5.7221287 38.70408196 C-5.72148512 34.70810031 -5.72250506 30.71213644 -5.72783279 26.71615791 C-5.73266689 23.06397809 -5.73296591 19.41182814 -5.72952621 15.759647 C-5.72889759 13.79992219 -5.73323923 11.84019778 -5.73770863 9.88047796 C-5.73571758 8.73244977 -5.73372653 7.58442158 -5.73167515 6.40160465 C-5.73205487 5.40256046 -5.73243459 4.40351627 -5.73282582 3.37419802 C-5.50763977 -0.67585681 -3.57384485 0.01220533 0 0 Z " fill="#3759CB" transform="translate(481.60862731933594,103.85955810546875)"/>
<path d="M0 0 C1.16052887 -0.00204437 2.32105774 -0.00408875 3.51675415 -0.00619507 C7.32114846 -0.00918348 11.12510118 0.00920864 14.92944336 0.02832031 C17.5807716 0.03138001 20.23207986 0.03335455 22.88340759 0.03399658 C28.42184062 0.03767412 33.96014858 0.05257435 39.49853516 0.07519531 C46.61429164 0.10419912 53.72994831 0.11443296 60.84575748 0.11887741 C66.31106204 0.12242295 71.77634414 0.13282885 77.24163628 0.1447525 C79.86722056 0.1504652 82.4928071 0.15522058 85.11839485 0.15901947 C88.77167904 0.16585292 92.42487021 0.17946805 96.078125 0.1953125 C97.71827324 0.19698929 97.71827324 0.19698929 99.39155579 0.19869995 C100.87386688 0.20726517 100.87386688 0.20726517 102.38612366 0.21600342 C103.2497606 0.21897808 104.11339754 0.22195274 105.0032053 0.22501755 C106.95678711 0.35644531 106.95678711 0.35644531 107.95678711 1.35644531 C108.05418175 3.11315239 108.08050163 4.8738207 108.07983494 6.63322544 C108.08182599 7.78473703 108.08381703 8.93624862 108.08586842 10.1226545 C108.08295558 11.40375459 108.08004274 12.68485469 108.07704163 14.004776 C108.07747721 15.36682338 108.07835188 16.72887068 108.07963079 18.09091753 C108.08187831 21.85118814 108.07785099 25.61143053 108.07285273 29.37169755 C108.06855207 33.42011589 108.06999438 37.46853253 108.070755 41.51695251 C108.07128049 48.53691551 108.06813118 55.55686924 108.06251717 62.57682991 C108.05440541 72.7266341 108.05178728 82.8764338 108.05052917 93.02624088 C108.04833814 109.49186169 108.04167667 125.95747757 108.03222656 142.4230957 C108.02305377 158.42211889 108.01597229 174.42114073 108.01171875 190.42016602 C108.01145603 191.40561183 108.0111933 192.39105765 108.01092262 193.40636546 C108.00961762 198.34983833 108.0083539 203.29331121 108.00711071 208.2367841 C107.99673651 249.27667461 107.97911681 290.31655968 107.95678711 331.35644531 C106.52637807 331.20713335 105.09625633 331.05506747 103.66625977 330.90185547 C102.86983063 330.81747223 102.07340149 330.73308899 101.25283813 330.64614868 C89.25168422 329.13190763 77.19143907 324.37717321 65.65600586 320.84472656 C64.36956177 320.45087769 64.36956177 320.45087769 63.05712891 320.04907227 C60.95678711 319.35644531 60.95678711 319.35644531 58.95678711 318.35644531 C58.95678711 229.91644531 58.95678711 141.47644531 58.95678711 50.35644531 C35.85678711 50.35644531 12.75678711 50.35644531 -11.04321289 50.35644531 C-21.66829342 47.70017518 -27.26102691 44.62798838 -33.18383789 35.62207031 C-35.43546978 29.68594987 -35.15884595 20.69338347 -33.16821289 14.73925781 C-31.95593125 12.68954478 -30.68960756 11.07387731 -29.04321289 9.35644531 C-28.53532227 8.79570313 -28.02743164 8.23496094 -27.50415039 7.65722656 C-19.95043338 0.26460778 -10.03171196 -0.08597362 0 0 Z " fill="#2E4CB2" transform="translate(136.043212890625,103.6435546875)"/>
<path d="M0 0 C1.051875 0.433125 1.051875 0.433125 2.125 0.875 C7.78062604 3.08807106 12.33170697 4.25433723 18.45825195 4.30297852 C19.53980309 4.31563751 19.53980309 4.31563751 20.64320374 4.32855225 C23.0082368 4.35418524 25.37314554 4.36643269 27.73828125 4.37890625 C29.38641843 4.39508977 31.03454609 4.41227066 32.68266296 4.43040466 C37.00749323 4.47596756 41.33233628 4.51084622 45.6572876 4.54260254 C52.59739131 4.59460984 59.5373562 4.65946945 66.47728539 4.73081779 C68.90422177 4.75370295 71.33114018 4.76993437 73.75813293 4.78553772 C75.2349976 4.79893671 76.71186034 4.81255084 78.1887207 4.82641602 C79.48300491 4.83592789 80.77728912 4.84543976 82.11079407 4.85523987 C85 5 85 5 86 6 C86.09662242 7.43350065 86.12371827 8.87175002 86.12304783 10.30850315 C86.12503888 11.24404421 86.12702993 12.17958528 86.12908131 13.14347607 C86.12616847 14.18333737 86.12325563 15.22319867 86.12025452 16.29457092 C86.12110894 17.38981738 86.12196337 18.48506384 86.12284368 19.61349958 C86.12450171 23.31404523 86.11897186 27.01454637 86.11352539 30.71508789 C86.11324356 33.35559695 86.11335705 35.99610322 86.1139679 38.63661194 C86.11449332 44.33715851 86.1113446 50.03769368 86.10573006 55.73823738 C86.09761754 63.98035813 86.09500009 72.22247333 86.09374207 80.46459763 C86.09155115 93.83553241 86.08489001 107.20646111 86.07543945 120.57739258 C86.06626635 133.56925425 86.05918502 146.56111426 86.05493164 159.55297852 C86.05466892 160.35323061 86.05440619 161.1534827 86.05413551 161.97798485 C86.05283051 165.9924453 86.05156679 170.00690577 86.05032361 174.02136624 C86.03994977 207.34758191 86.0223304 240.67379021 86 274 C86.99 274.33 87.98 274.66 89 275 C88.01 275.33 87.02 275.66 86 276 C85.34 275.67 84.68 275.34 84 275 C84 186.56 84 98.12 84 7 C60.9 7 37.8 7 14 7 C8.39695416 5.59923854 4.81437227 4.64790475 0 2 C0 1.34 0 0.68 0 0 Z " fill="#2140A9" transform="translate(111,147)"/>
<path d="M0 0 C1.70964432 -0.00503792 1.70964432 -0.00503792 3.4538269 -0.01017761 C7.1992097 -0.0196277 10.94454745 -0.02162812 14.68994141 -0.02270508 C17.31816628 -0.02592313 19.94639097 -0.02928761 22.57461548 -0.03279114 C28.08034555 -0.03916832 33.58606361 -0.0406757 39.09179688 -0.04003906 C45.40253721 -0.03944096 51.71319134 -0.04994596 58.02390993 -0.06578273 C64.14811558 -0.08058902 70.27228087 -0.08402286 76.39650345 -0.08342934 C78.97568741 -0.08459816 81.55487223 -0.08895711 84.13404465 -0.0967617 C122.26609074 -0.20129802 122.26609074 -0.20129802 138.16650391 4.45776367 C138.95009277 4.67795166 139.73368164 4.89813965 140.54101562 5.125 C150.5509135 8.01814743 159.41153685 12.13016206 168.41650391 17.33276367 C169.1810791 17.77322021 169.9456543 18.21367676 170.73339844 18.66748047 C172.58143418 19.76679773 174.37964016 20.94908119 176.16650391 22.14526367 C176.16650391 22.80526367 176.16650391 23.46526367 176.16650391 24.14526367 C177.28025391 24.54745117 177.28025391 24.54745117 178.41650391 24.95776367 C181.05712339 26.09803118 183.02203235 27.23906673 185.16650391 29.14526367 C185.16650391 29.80526367 185.16650391 30.46526367 185.16650391 31.14526367 C185.80587891 31.41338867 186.44525391 31.68151367 187.10400391 31.95776367 C189.16650391 33.14526367 189.16650391 33.14526367 190.16650391 36.14526367 C190.82650391 36.14526367 191.48650391 36.14526367 192.16650391 36.14526367 C192.16650391 36.80526367 192.16650391 37.46526367 192.16650391 38.14526367 C192.74916016 38.38245117 193.33181641 38.61963867 193.93212891 38.86401367 C196.64203228 40.41794428 198.03181192 42.16455799 199.91650391 44.64526367 C200.83689453 45.83635742 200.83689453 45.83635742 201.77587891 47.05151367 C203.16650391 49.14526367 203.16650391 49.14526367 203.16650391 51.14526367 C203.82650391 51.14526367 204.48650391 51.14526367 205.16650391 51.14526367 C206.3023706 53.16033488 207.42673426 55.18090977 208.54150391 57.20776367 C209.71105808 59.32195776 210.90109235 61.42486934 212.10400391 63.52026367 C220.6003065 78.56622196 225.15878299 94.47822335 225.85400391 111.77026367 C225.92458008 113.10444336 225.92458008 113.10444336 225.99658203 114.46557617 C226.23692756 119.82409941 226.16364225 124.86345209 225.16650391 130.14526367 C224.50650391 130.47526367 223.84650391 130.80526367 223.16650391 131.14526367 C223.18221436 130.5072583 223.1979248 129.86925293 223.21411133 129.21191406 C223.8457889 99.52839871 218.5808918 70.15544658 198.16650391 47.14526367 C197.44462891 46.31639648 196.72275391 45.4875293 195.97900391 44.63354492 C193.74138681 42.10488641 191.46096961 39.62229084 189.16650391 37.14526367 C188.64958984 36.55100586 188.13267578 35.95674805 187.60009766 35.34448242 C169.18688661 15.20052569 139.61262038 5.09685237 113.16650391 3.14526367 C108.95560495 3.00664507 104.74808948 2.99831904 100.53515625 3 C99.31093964 2.99664139 98.08672302 2.99328278 96.82540894 2.98982239 C93.49443536 2.98199708 90.16352416 2.97864752 86.83254576 2.9780066 C84.74217817 2.97729141 82.65181695 2.97514825 80.56145096 2.97250938 C73.24213502 2.96328012 65.92283719 2.95917126 58.60351562 2.95996094 C51.82463563 2.96056036 45.04583556 2.95002893 38.26697576 2.93421727 C32.41179169 2.92105606 26.55663345 2.91578064 20.70143473 2.91641635 C17.22013124 2.91666892 13.73889882 2.91395321 10.25761032 2.9032383 C-14.70057489 2.36482596 -14.70057489 2.36482596 -38.89599609 7.64526367 C-43.51953947 9.32097884 -48.09511094 10.84145323 -52.83349609 12.14526367 C-44.7293384 2.59789981 -26.35515607 1.49658527 -14.65487289 0.35715294 C-9.77135104 -0.00960625 -4.89514393 -0.00210333 0 0 Z " fill="#7593F4" transform="translate(486.83349609375,9.854736328125)"/>
<path d="M0 0 C2.59533728 -0.00135132 5.19067432 -0.00329571 7.78601074 -0.00579834 C13.19509561 -0.00872767 18.60410818 -0.00472033 24.01318359 0.00488281 C30.2111012 0.0157614 36.40888708 0.01223363 42.60680151 0.00123 C48.64080416 -0.00904192 54.67474392 -0.00782501 60.70875549 -0.00200653 C63.24410522 -0.00068645 65.77945838 -0.00225912 68.31480408 -0.00696564 C97.74531721 -0.04962959 126.4480476 0.95709698 149.78125 21.265625 C148.79125 21.595625 147.80125 21.925625 146.78125 22.265625 C146.45125 21.605625 146.12125 20.945625 145.78125 20.265625 C144.79125 19.935625 143.80125 19.605625 142.78125 19.265625 C142.78125 18.605625 142.78125 17.945625 142.78125 17.265625 C141.76998047 16.87503906 141.76998047 16.87503906 140.73828125 16.4765625 C137.93982168 15.33056188 135.20797047 14.0749453 132.46508789 12.80322266 C116.84805674 5.66411755 101.42689108 3.1135285 84.29516602 3.12036133 C82.46387901 3.11532341 82.46387901 3.11532341 80.59559631 3.11018372 C77.26856132 3.10234925 73.94158878 3.09900822 70.61454892 3.09836793 C68.52601373 3.09765312 66.43748493 3.0955106 64.34895134 3.09287071 C57.03381821 3.08363507 49.71870322 3.07953313 42.40356445 3.08032227 C35.63326556 3.08092088 28.86304689 3.07040716 22.09276825 3.0545786 C16.24351782 3.04140111 10.39429326 3.03614268 4.54502815 3.03677768 C1.06811727 3.03702991 -2.40872239 3.03433406 -5.88561821 3.02359962 C-32.68995372 2.52056757 -32.68995372 2.52056757 -58.78125 7.890625 C-59.55879639 8.15004883 -60.33634277 8.40947266 -61.13745117 8.67675781 C-87.80292856 17.87417245 -109.79461885 34.53349593 -125.21875 58.265625 C-125.71375 56.780625 -125.71375 56.780625 -126.21875 55.265625 C-124.73958887 52.9657285 -123.25248671 50.93623341 -121.53125 48.828125 C-121.03810303 48.21283936 -120.54495605 47.59755371 -120.03686523 46.96362305 C-114.02832551 39.60578394 -107.20768481 31.51549644 -99.21875 26.265625 C-98.55875 26.265625 -97.89875 26.265625 -97.21875 26.265625 C-97.21875 25.605625 -97.21875 24.945625 -97.21875 24.265625 C-92.83413462 21.265625 -92.83413462 21.265625 -90.21875 21.265625 C-90.21875 20.605625 -90.21875 19.945625 -90.21875 19.265625 C-79.28082139 12.97073548 -68.19705839 7.87053801 -56.03125 4.515625 C-55.33902344 4.31702881 -54.64679688 4.11843262 -53.93359375 3.91381836 C-36.43377426 -0.63045194 -17.91915044 -0.03326444 0 0 Z " fill="#7B90EB" transform="translate(152.21875,9.734375)"/>
<path d="M0 0 C0.33 0 0.66 0 1 0 C1 74.58 1 149.16 1 226 C0.01 225.67 -0.98 225.34 -2 225 C-1.89267874 197.2878176 -1.77990269 169.57566203 -1.66066074 141.86352825 C-1.60541944 128.99586057 -1.55195258 116.12819011 -1.50268555 103.26049805 C-1.45973212 92.0429906 -1.41342636 80.82550282 -1.36312145 69.60802585 C-1.33661021 63.670343 -1.31175979 57.73266382 -1.29092598 51.79495811 C-1.27124636 46.20131302 -1.24706981 40.60770504 -1.21950912 35.0140934 C-1.21019834 32.9659353 -1.20250203 30.91776909 -1.19658089 28.86959839 C-1.13735511 8.98843684 -1.13735511 8.98843684 0 0 Z " fill="#143299" transform="translate(243,209)"/>
<path d="M0 0 C0.33 0 0.66 0 1 0 C2.09209912 22.49655055 2.21064215 44.98033008 2.30332303 67.49837661 C2.32553472 72.66725321 2.35274742 77.83610373 2.37937927 83.00495911 C2.42883961 92.7469781 2.47394688 102.48901194 2.51740164 112.23105937 C2.56717888 123.3415277 2.62194378 134.4519698 2.67708123 145.56241262 C2.7901828 168.37491717 2.89717169 191.18744698 3 214 C2.01 214 1.02 214 0 214 C0 143.38 0 72.76 0 0 Z " fill="#2242B0" transform="translate(476,220)"/>
<path d="M0 0 C15.4733132 -0.07023551 30.94661439 -0.12305919 46.42004967 -0.15543652 C53.60544556 -0.17087279 60.79074211 -0.1918999 67.97607422 -0.22631836 C74.24243701 -0.25632043 80.50872781 -0.27559852 86.77516043 -0.28226548 C90.08993883 -0.28615957 93.40446466 -0.29684238 96.71918869 -0.31719017 C100.42928892 -0.33905363 104.13896652 -0.34196312 107.84912109 -0.34057617 C108.93525696 -0.351362 110.02139282 -0.36214783 111.14044189 -0.3732605 C120.04726168 -0.33737029 128.7901717 0.73059173 135.4609375 7.1484375 C141.36119077 14.24671174 142.7757473 20.93237596 142 30 C141.34 29.67 140.68 29.34 140 29 C139.796875 26.84765625 139.796875 26.84765625 139.75 24.0625 C139.2496215 17.75444972 137.49580335 12.56592853 133 8 C125.61240191 3.12879394 119.17684958 2.29325626 110.48193359 2.43237305 C109.27103058 2.43164291 108.06012756 2.43091278 106.81253052 2.43016052 C103.52353531 2.43302736 100.23563285 2.45793266 96.94685316 2.49303031 C93.49827887 2.52449291 90.04967835 2.52724008 86.60098267 2.53315735 C80.08457428 2.54863788 73.56859018 2.58958659 67.05236781 2.6399048 C59.62791171 2.69597998 52.20343432 2.72333018 44.77881885 2.74838197 C29.51896768 2.80050867 14.25953876 2.88833651 -1 3 C-0.67 2.01 -0.34 1.02 0 0 Z " fill="#7392F0" transform="translate(477,104)"/>
<path d="M0 0 C0.33 0 0.66 0 1 0 C1 40.59 1 81.18 1 123 C-4.23095456 124.74365152 -8.43411625 125.58985384 -13.8125 126.125 C-14.63403564 126.20991699 -15.45557129 126.29483398 -16.30200195 126.38232422 C-24.54174032 127.16661034 -32.73240922 127.19054627 -41 127 C-41 126.67 -41 126.34 -41 126 C-40.03175293 125.91435791 -39.06350586 125.82871582 -38.06591797 125.74047852 C-34.4538921 125.42037569 -30.8421436 125.09723077 -27.23046875 124.77319336 C-25.67097183 124.63369856 -24.1114021 124.49501515 -22.55175781 124.35717773 C-20.30253515 124.15825223 -18.05359548 123.95635458 -15.8046875 123.75390625 C-15.1138205 123.6934462 -14.42295349 123.63298615 -13.71115112 123.57069397 C-9.76811545 123.21244122 -5.90062161 122.67031519 -2 122 C-1.99576806 121.43807544 -1.99153612 120.87615088 -1.98717594 120.2971983 C-1.8835705 106.5821298 -1.77483249 92.8671101 -1.66066074 79.15212536 C-1.60559981 72.51948316 -1.55220764 65.88683644 -1.50268555 59.25415039 C-1.45479262 52.84801415 -1.40244253 46.44192814 -1.34705925 40.03585243 C-1.3267481 37.59717378 -1.30801732 35.15848141 -1.29092598 32.71977806 C-1.26663125 29.29254604 -1.23661354 25.86540675 -1.20532227 22.43823242 C-1.1995668 21.43984848 -1.19381134 20.44146454 -1.18788147 19.41282654 C-1.12069383 12.89852892 -0.68377129 6.47828806 0 0 Z " fill="#3F5BAC" transform="translate(431,320)"/>
<path d="M0 0 C0.33 0 0.66 0 1 0 C1.33 52.14 1.66 104.28 2 158 C1.01 158 0.02 158 -1 158 C-1.73182825 154.0774958 -2.11864619 150.38982484 -2.08901978 146.40182495 C-2.08342545 145.31181183 -2.07783112 144.22179871 -2.07206726 143.09875488 C-2.06069229 141.91744995 -2.04931732 140.73614502 -2.03759766 139.51904297 C-2.02959641 138.26282135 -2.02159515 137.00659973 -2.01335144 135.71231079 C-1.9912158 132.27336788 -1.96251548 128.83450862 -1.93239641 125.3956275 C-1.90156995 121.77485386 -1.87603573 118.15404221 -1.84970093 114.53323364 C-1.80453036 108.43862629 -1.75509259 102.34406467 -1.703125 96.24951172 C-1.64353515 89.25500917 -1.59059739 82.26048109 -1.54135668 75.26589859 C-1.49352599 68.49454556 -1.44081118 61.72323846 -1.38599777 54.95193863 C-1.36294175 52.09365876 -1.34151068 49.23537408 -1.32149124 46.37707138 C-1.21128457 30.89514728 -0.96701593 15.45523957 0 0 Z " fill="#15339A" transform="translate(290,286)"/>
<path d="M0 0 C0.33 0 0.66 0 1 0 C1.33 22.77 1.66 45.54 2 69 C1.01 69 0.02 69 -1 69 C-2.1040817 63.74894477 -2.06009793 58.7848627 -1.9140625 53.45703125 C-1.89282318 52.53395676 -1.87158386 51.61088226 -1.84970093 50.65983582 C-1.80353468 48.70390392 -1.75461457 46.74803533 -1.703125 44.79223633 C-1.62644113 41.86746555 -1.55852463 38.94259983 -1.4921875 36.01757812 C-1.20577337 23.99773181 -0.70412601 12.0024655 0 0 Z " fill="#0F298A" transform="translate(290,375)"/>
<path d="M0 0 C8.78284331 9.61930458 7.47666815 25.38728816 7.15380859 37.40917969 C6.8247466 42.95204616 5.47609469 48.04781063 3 53 C2.34 53 1.68 53 1 53 C1.21148682 52.35530762 1.42297363 51.71061523 1.64086914 51.04638672 C3.88806005 43.63929722 4.50558469 36.84183236 4.4375 29.125 C4.43427734 27.98474365 4.43105469 26.8444873 4.42773438 25.66967773 C4.30570924 18.31082583 3.59942787 12.09994465 0.875 5.22265625 C0 3 0 3 0 0 Z " fill="#305CEC" transform="translate(658,100)"/>
<path d="M0 0 C19.04013395 0.35863266 37.60516863 7.47116529 52 20 C51.01 20.33 50.02 20.66 49 21 C48.505 20.01 48.505 20.01 48 19 C47.01 18.67 46.02 18.34 45 18 C45 17.34 45 16.68 45 16 C44.32582031 15.73960938 43.65164063 15.47921875 42.95703125 15.2109375 C40.15857168 14.06493688 37.42672047 12.8093203 34.68383789 11.53759766 C23.25258015 6.31195972 11.59420803 2.89958629 -1 2 C-0.67 1.34 -0.34 0.68 0 0 Z " fill="#6184ED" transform="translate(250,11)"/>
<path d="M0 0 C0.33 0 0.66 0 1 0 C0.52111236 3.43928396 0.02298247 6.86745729 -0.5703125 10.2890625 C-3.03217225 25.0948951 -1.69763508 39.6219155 5.328125 53.0625 C6.14723743 55.42459165 5.80979134 56.67444538 5 59 C1.07587393 51.99263201 -0.96834357 44.745094 -3 37 C-3.19722656 36.35160156 -3.39445312 35.70320313 -3.59765625 35.03515625 C-5.63521307 24.72867954 -4.75889234 9.51778467 0 0 Z " fill="#1E42B7" transform="translate(59,105)"/>
<path d="M0 0 C8.58880357 -0.49339935 16.76284728 0.17607704 23.8125 5.5625 C28.51267184 10.08446627 31.66043962 15.55650943 32.3046875 22.08984375 C32.31152881 24.74769306 32.22648403 27.35265337 32 30 C31.34 29.67 30.68 29.34 30 29 C29.796875 26.84765625 29.796875 26.84765625 29.75 24.0625 C29.23568984 17.57881948 27.3254147 12.89036682 23 8 C16.25749451 2.81532971 8.251077 1.86649241 0 1 C0 0.67 0 0.34 0 0 Z " fill="#5E82F2" transform="translate(587,104)"/>
<path d="M0 0 C0.66 0 1.32 0 2 0 C0.58317163 4.02408469 -1.34785768 7.13416919 -3.875 10.5625 C-4.55304687 11.49191406 -5.23109375 12.42132813 -5.9296875 13.37890625 C-7.83232053 15.78771146 -9.70641725 17.96072664 -12 20 C-12.66 20 -13.32 20 -14 20 C-14 20.66 -14 21.32 -14 22 C-16.8125 24.1875 -16.8125 24.1875 -20 26 C-20.99 25.67 -21.98 25.34 -23 25 C-21.68 24.67 -20.36 24.34 -19 24 C-19 23.34 -19 22.68 -19 22 C-17.35546875 20.30859375 -17.35546875 20.30859375 -15.1875 18.4375 C-14.47980469 17.81746094 -13.77210938 17.19742188 -13.04296875 16.55859375 C-11 15 -11 15 -8 14 C-7.27411752 12.35825798 -6.61576454 10.68613649 -6 9 C-5.04542117 7.36839651 -4.04494699 5.76275759 -3 4.1875 C-2.484375 3.39730469 -1.96875 2.60710937 -1.4375 1.79296875 C-0.963125 1.20128906 -0.48875 0.60960937 0 0 Z " fill="#3660E7" transform="translate(655,161)"/>
<path d="M0 0 C17.85649203 0.96355353 17.85649203 0.96355353 26 2 C26 2.33 26 2.66 26 3 C22.79174438 3.05849554 19.58362767 3.09376162 16.375 3.125 C15.47136719 3.14175781 14.56773437 3.15851563 13.63671875 3.17578125 C8.67249848 3.21201643 4.65588093 2.96444146 0 1 C0 0.67 0 0.34 0 0 Z " fill="#2B4495" transform="translate(294,443)"/>
<path d="M0 0 C3.11288838 1.397341 5.36895011 3.07023925 7.875 5.375 C10.32238193 7.57947698 12.71038681 9.56072868 15.5 11.3125 C16.325 11.869375 17.15 12.42625 18 13 C18 13.66 18 14.32 18 15 C13.53547507 13.53662794 10.28356746 11.06343413 6.75 8.0625 C6.20859375 7.61970703 5.6671875 7.17691406 5.109375 6.72070312 C2.49464054 4.52759459 1.09948134 3.29844402 0 0 Z " fill="#2343AF" transform="translate(73,175)"/>
<path d="M0 0 C13.30670927 11.1341853 13.30670927 11.1341853 17 17 C17 17.66 17 18.32 17 19 C16.01 18.67 15.02 18.34 14 18 C13 16 13 16 12 14 C9.42487808 11.21028459 6.72989381 8.77270524 3.75 6.4375 C0.96282899 3.96705297 0.60797374 3.42347118 0 0 Z " fill="#4A71E9" transform="translate(303,32)"/>
<path d="M0 0 C6.06431703 4.82670131 12.4875255 10.46257651 15 18 C14.34 18 13.68 18 13 18 C11.4921875 16.3203125 11.4921875 16.3203125 9.875 14.125 C9.33617187 13.40570313 8.79734375 12.68640625 8.2421875 11.9453125 C7 10 7 10 7 8 C6.34 8 5.68 8 5 8 C0 2.52380952 0 2.52380952 0 0 Z " fill="#2757EC" transform="translate(640,75)"/>
<path d="M0 0 C2.59037598 3.20490963 4.37943156 6.55350453 6.1875 10.25 C6.71730469 11.32765625 7.24710938 12.4053125 7.79296875 13.515625 C8.19128906 14.33546875 8.58960938 15.1553125 9 16 C5.16982558 14.54322426 4.00162963 12.76882213 2.25 9.125 C1.82203125 8.26132813 1.3940625 7.39765625 0.953125 6.5078125 C0 4 0 4 0 0 Z " fill="#2644AE" transform="translate(19,176)"/>
<path d="M0 0 C5.94 1.65 11.88 3.3 18 5 C18 5.33 18 5.66 18 6 C12.05827036 6.38750411 6.44461879 5.53456392 1 3 C0.67 2.01 0.34 1.02 0 0 Z " fill="#284090" transform="translate(205,423)"/>
<path d="M0 0 C0.99 0.33 1.98 0.66 3 1 C2.48050781 1.35191406 1.96101563 1.70382813 1.42578125 2.06640625 C-3.5093484 5.56022262 -6.74098198 8.90778434 -10 14 C-10.33 13.34 -10.66 12.68 -11 12 C-8.16075257 7.23006431 -4.84530654 2.88919671 0 0 Z " fill="#4866CB" transform="translate(114,107)"/>
<path d="M0 0 C3.915141 3.35583515 6.0795774 7.28066362 8 12 C8 12.66 8 13.32 8 14 C7.34 14 6.68 14 6 14 C5.34 11.69 4.68 9.38 4 7 C3.34 7 2.68 7 2 7 C0.5393715 4.35261084 0 3.10551666 0 0 Z " fill="#486CE8" transform="translate(322,54)"/>
<path d="M0 0 C4.04420651 1.77945087 7.46078487 4.39529673 11 7 C10.01 7.33 9.02 7.66 8 8 C5.95703125 6.85546875 5.95703125 6.85546875 3.8125 5.1875 C3.09707031 4.64480469 2.38164063 4.10210937 1.64453125 3.54296875 C1.10183594 3.03378906 0.55914062 2.52460938 0 2 C0 1.34 0 0.68 0 0 Z " fill="#1F3CA5" transform="translate(51,219)"/>
<path d="M0 0 C0.33 0.66 0.66 1.32 1 2 C1.66 2 2.32 2 3 2 C4.5078125 3.75 4.5078125 3.75 6.125 6 C6.66382813 6.7425 7.20265625 7.485 7.7578125 8.25 C8.16773438 8.8275 8.57765625 9.405 9 10 C4.36771604 9.1883605 2.71297718 6.76802386 0 3 C0 2.01 0 1.02 0 0 Z " fill="#2143A9" transform="translate(35,202)"/>
<path d="M0 0 C0.556875 0.70125 1.11375 1.4025 1.6875 2.125 C4.09124732 5.11344261 6.53810432 8.05940238 9 11 C6.53955077 10.61095461 5.27840279 10.28572918 3.515625 8.4765625 C3.09796875 7.86554688 2.6803125 7.25453125 2.25 6.625 C1.82203125 6.01914063 1.3940625 5.41328125 0.953125 4.7890625 C0 3 0 3 0 0 Z " fill="#2D4EB8" transform="translate(66,164)"/>
<path d="M0 0 C2.475 0.495 2.475 0.495 5 1 C5 1.66 5 2.32 5 3 C5.639375 3.2475 6.27875 3.495 6.9375 3.75 C9 5 9 5 9.62890625 7.078125 C9.81259766 8.02945313 9.81259766 8.02945313 10 9 C8.8944811 8.06409496 7.79064547 7.12620142 6.6875 6.1875 C6.07261719 5.66542969 5.45773437 5.14335938 4.82421875 4.60546875 C3.14575321 3.12827531 1.56117966 1.59960869 0 0 Z " fill="#7593F2" transform="translate(667,38)"/>
<path d="M0 0 C2.475 0.99 2.475 0.99 5 2 C5 2.66 5 3.32 5 4 C6.65 4.33 8.3 4.66 10 5 C10 5.66 10 6.32 10 7 C6.51329166 5.8905928 3.22515763 4.73662334 0 3 C0 2.01 0 1.02 0 0 Z " fill="#2F4BBA" transform="translate(91,188)"/>
<path d="M0 0 C0.66 0.33 1.32 0.66 2 1 C0.125 8.75 0.125 8.75 -1 11 C-1.66 11 -2.32 11 -3 11 C-2.01 7.37 -1.02 3.74 0 0 Z " fill="#3C66EF" transform="translate(662,142)"/>
<path d="M0 0 C4.875 4.625 4.875 4.625 6 8 C2.83884224 6.63016497 2.0072908 6.0109362 0 3 C0 2.01 0 1.02 0 0 Z " fill="#2543A8" transform="translate(28,193)"/>
<path d="M0 0 C3.25543229 0.34879632 4.01873107 1.02133261 6.25 3.5625 C6.8275 4.366875 7.405 5.17125 8 6 C6.68 5.67 5.36 5.34 4 5 C4 4.34 4 3.68 4 3 C2.68 2.34 1.36 1.68 0 1 C0 0.67 0 0.34 0 0 Z " fill="#314EAF" transform="translate(42,212)"/>
</svg>
